<svg width="20" height="20" viewBox="0 0 20 20" fill="none" xmlns="http://www.w3.org/2000/svg">
<path d="M16.6667 18.3333H3.33333C3.11232 18.3333 2.90036 18.2455 2.74408 18.0893C2.5878 17.933 2.5 17.721 2.5 17.5V2.50001C2.5 2.27899 2.5878 2.06703 2.74408 1.91075C2.90036 1.75447 3.11232 1.66667 3.33333 1.66667H16.6667C16.8877 1.66667 17.0996 1.75447 17.2559 1.91075C17.4122 2.06703 17.5 2.27899 17.5 2.50001V17.5C17.5 17.721 17.4122 17.933 17.2559 18.0893C17.0996 18.2455 16.8877 18.3333 16.6667 18.3333ZM15.8333 16.6667V3.33334H4.16667V16.6667H15.8333ZM5.83333 5.00001H9.16667V8.33334H5.83333V5.00001ZM5.83333 10H14.1667V11.6667H5.83333V10ZM5.83333 13.3333H14.1667V15H5.83333V13.3333ZM10.8333 5.83334H14.1667V7.50001H10.8333V5.83334Z" fill="#CC0000"/>
</svg>
