<svg width="21" height="20" viewBox="0 0 21 20" fill="none" xmlns="http://www.w3.org/2000/svg">
<path d="M6.33332 5.83334V2.50001C6.33332 2.27899 6.42112 2.06703 6.5774 1.91075C6.73368 1.75447 6.94564 1.66667 7.16666 1.66667H18C18.221 1.66667 18.433 1.75447 18.5892 1.91075C18.7455 2.06703 18.8333 2.27899 18.8333 2.50001V13.3333C18.8333 13.5544 18.7455 13.7663 18.5892 13.9226C18.433 14.0789 18.221 14.1667 18 14.1667H14.6667V17.4942C14.6667 17.9575 14.2925 18.3333 13.8275 18.3333H3.00582C2.89559 18.3334 2.78642 18.3118 2.68456 18.2697C2.5827 18.2276 2.49014 18.1657 2.4122 18.0878C2.33425 18.0099 2.27244 17.9173 2.23031 17.8154C2.18818 17.7136 2.16655 17.6044 2.16666 17.4942L2.16916 6.67251C2.16916 6.20917 2.54332 5.83334 3.00832 5.83334H6.33332ZM7.99999 5.83334H13.8275C14.2908 5.83334 14.6667 6.20751 14.6667 6.67251V12.5H17.1667V3.33334H7.99999V5.83334ZM13 7.50001H3.83582L3.83332 16.6667H13V7.50001ZM7.58582 15L4.63916 12.0533L5.81749 10.875L7.58582 12.6433L11.1208 9.10751L12.2992 10.2858L7.58582 15Z" fill="#CC0000"/>
</svg>
