<svg width="21" height="20" viewBox="0 0 21 20" fill="none" xmlns="http://www.w3.org/2000/svg">
<path d="M11.3333 1.66667V2.73167L15.5 4.12167L18.5267 3.11334L19.0542 4.69334L16.5275 5.53584L19.1075 12.6292C18.1975 13.5767 16.9167 14.1667 15.5 14.1667C14.0825 14.1667 12.8025 13.5767 11.8925 12.6292L14.4708 5.53584L11.3333 4.48917V15.8333H14.6667V17.5H6.33332V15.8333H9.66665V4.48917L6.52665 5.53584L9.10665 12.6292C8.19749 13.5767 6.91665 14.1667 5.49999 14.1667C4.08249 14.1667 2.80249 13.5767 1.89249 12.6292L4.47082 5.53584L1.94582 4.69417L2.47332 3.1125L5.49999 4.12084L9.66665 2.73167V1.66667H11.3333ZM15.5 7.58584L13.8683 12.0742C14.3575 12.35 14.9158 12.5 15.5 12.5C16.0833 12.5 16.6417 12.35 17.1317 12.075L15.5 7.58501V7.58584ZM5.49999 7.58584L3.86832 12.0742C4.35749 12.35 4.91582 12.5 5.49999 12.5C6.08332 12.5 6.64165 12.35 7.13165 12.075L5.49999 7.58501V7.58584Z" fill="#CC0000"/>
</svg>
