<svg width="21" height="20" viewBox="0 0 21 20" fill="none" xmlns="http://www.w3.org/2000/svg">
<path d="M16.3333 18.3333H4.66666C4.00362 18.3333 3.36773 18.0699 2.89889 17.6011C2.43005 17.1323 2.16666 16.4964 2.16666 15.8333V2.50001C2.16666 2.27899 2.25445 2.06703 2.41073 1.91075C2.56701 1.75447 2.77898 1.66667 2.99999 1.66667H14.6667C14.8877 1.66667 15.0996 1.75447 15.2559 1.91075C15.4122 2.06703 15.5 2.27899 15.5 2.50001V12.5H18.8333V15.8333C18.8333 16.4964 18.5699 17.1323 18.1011 17.6011C17.6322 18.0699 16.9964 18.3333 16.3333 18.3333ZM15.5 14.1667V15.8333C15.5 16.0544 15.5878 16.2663 15.7441 16.4226C15.9003 16.5789 16.1123 16.6667 16.3333 16.6667C16.5543 16.6667 16.7663 16.5789 16.9226 16.4226C17.0789 16.2663 17.1667 16.0544 17.1667 15.8333V14.1667H15.5ZM13.8333 16.6667V3.33334H3.83332V15.8333C3.83332 16.0544 3.92112 16.2663 4.0774 16.4226C4.23368 16.5789 4.44564 16.6667 4.66666 16.6667H13.8333ZM5.49999 5.83334H12.1667V7.50001H5.49999V5.83334ZM5.49999 9.16667H12.1667V10.8333H5.49999V9.16667ZM5.49999 12.5H9.66666V14.1667H5.49999V12.5Z" fill="#CC0000"/>
</svg>
