<svg width="25" height="24" viewBox="0 0 25 24" fill="none" xmlns="http://www.w3.org/2000/svg">
<path d="M20.5 2C21.2956 2 22.0587 2.31607 22.6213 2.87868C23.1839 3.44129 23.5 4.20435 23.5 5V7H21.5V19C21.5 19.7956 21.1839 20.5587 20.6213 21.1213C20.0587 21.6839 19.2956 22 18.5 22H4.5C3.70435 22 2.94129 21.6839 2.37868 21.1213C1.81607 20.5587 1.5 19.7956 1.5 19V17H17.5V19C17.5 19.2449 17.59 19.4813 17.7527 19.6644C17.9155 19.8474 18.1397 19.9643 18.383 19.993L18.5 20C18.7449 20 18.9813 19.91 19.1644 19.7473C19.3474 19.5845 19.4643 19.3603 19.493 19.117L19.5 19V4H6.5C6.25507 4.00003 6.01866 4.08996 5.83563 4.25272C5.65259 4.41547 5.53566 4.63975 5.507 4.883L5.5 5V15H3.5V5C3.5 4.20435 3.81607 3.44129 4.37868 2.87868C4.94129 2.31607 5.70435 2 6.5 2H20.5Z" fill="#80808F"/>
</svg>
