<svg width="16" height="16" viewBox="0 0 16 16" fill="none" xmlns="http://www.w3.org/2000/svg">
<path d="M13.3333 11.3333H14.6666V12.6667H1.33331V11.3333H2.66665V6.66668C2.66665 5.25219 3.22855 3.89563 4.22874 2.89544C5.22894 1.89525 6.58549 1.33334 7.99998 1.33334C9.41447 1.33334 10.771 1.89525 11.7712 2.89544C12.7714 3.89563 13.3333 5.25219 13.3333 6.66668V11.3333ZM12 11.3333V6.66668C12 5.60581 11.5786 4.5884 10.8284 3.83825C10.0783 3.0881 9.06085 2.66668 7.99998 2.66668C6.93911 2.66668 5.9217 3.0881 5.17155 3.83825C4.42141 4.5884 3.99998 5.60581 3.99998 6.66668V11.3333H12ZM5.99998 14H9.99998V15.3333H5.99998V14Z" fill="#CC0000"/>
</svg>
